<svg width="100%" viewBox="0 0 690 600" role="img" xmlns="http://www.w3.org/2000/svg">
<title>Estructura física del CPD InnovateTech — 5 servidors</title>
<desc>Vista isomètrica del CPD amb 3 racks (servidors, xarxa, emmagatzematge), climatització CRAC, SAIs, càmeres CCTV i sistema d'extinció</desc>
<!-- SÒL TÈCNIC -->
<polygon points="340,400 80,500 340,580 600,500" fill="none" stroke="rgba(31,30,29,0.3)" stroke-width="1" opacity="0.5"/>
<polygon points="340,400 80,500 340,580 600,500" fill="#f5f4ed" opacity="0.3"/>
<line x1="160" y1="458" x2="420" y2="538" stroke="rgba(31,30,29,0.15)" stroke-width="0.5" stroke-dasharray="4 4"/>
<line x1="210" y1="434" x2="470" y2="514" stroke="rgba(31,30,29,0.15)" stroke-width="0.5" stroke-dasharray="4 4"/>
<line x1="260" y1="410" x2="520" y2="490" stroke="rgba(31,30,29,0.15)" stroke-width="0.5" stroke-dasharray="4 4"/>
<line x1="185" y1="548" x2="445" y2="468" stroke="rgba(31,30,29,0.15)" stroke-width="0.5" stroke-dasharray="4 4"/>
<line x1="215" y1="558" x2="475" y2="478" stroke="rgba(31,30,29,0.15)" stroke-width="0.5" stroke-dasharray="4 4"/>
<!-- PARETS -->
<polygon points="80,260 80,500 340,400 340,160" fill="#f5f4ed" opacity="0.12" stroke="rgba(31,30,29,0.15)" stroke-width="0.5"/>
<polygon points="600,260 600,500 340,400 340,160" fill="#faf9f5" opacity="0.10" stroke="rgba(31,30,29,0.15)" stroke-width="0.5"/>
<!-- SOSTRE TÈCNIC -->
<polygon points="340,160 80,260 340,350 600,260" fill="none" stroke="rgba(31,30,29,0.3)" stroke-width="0.7" stroke-dasharray="6 3"/>
<!-- CRAC ESQUERRA -->
<polygon points="88,318 88,398 118,384 118,304" fill="#e1f5ee" stroke="#0f6e56" stroke-width="0.5"/>
<polygon points="88,318 118,304 142,313 112,327" fill="#e1f5ee" stroke="#0f6e56" stroke-width="0.5" opacity="0.7"/>
<polygon points="118,304 142,313 142,393 118,384" fill="#e1f5ee" stroke="#0f6e56" stroke-width="0.5" opacity="0.5"/>
<line x1="90" y1="334" x2="116" y2="334" stroke="rgba(31,30,29,0.15)" stroke-width="0.5"/>
<line x1="90" y1="344" x2="116" y2="344" stroke="rgba(31,30,29,0.15)" stroke-width="0.5"/>
<line x1="90" y1="354" x2="116" y2="354" stroke="rgba(31,30,29,0.15)" stroke-width="0.5"/>
<text x="100" y="378" text-anchor="middle" fill="#0f6e56" font-family="sans-serif" font-size="12">CRAC</text>
<!-- Flux aire fred -->
<path d="M118 362 Q148 356 162 368" stroke="#378ADD" stroke-width="2.5" fill="none" opacity="0.5" stroke-linecap="round"/>
<path d="M118 348 Q152 340 168 350" stroke="#378ADD" stroke-width="1.5" fill="none" opacity="0.3" stroke-linecap="round"/>
<!-- RACK 1 – Servidors (5 unitats) -->
<polygon points="162,282 162,412 210,388 210,258" fill="#eeedfe" stroke="#534ab7" stroke-width="0.5"/>
<polygon points="162,282 210,258 256,272 208,296" fill="#eeedfe" stroke="#534ab7" stroke-width="0.5" opacity="0.7"/>
<polygon points="210,258 256,272 256,402 210,388" fill="#eeedfe" stroke="#534ab7" stroke-width="0.5" opacity="0.5"/>
<line x1="165" y1="298" x2="208" y2="298" stroke="rgba(31,30,29,0.15)" stroke-width="0.5"/>
<line x1="165" y1="313" x2="208" y2="313" stroke="rgba(31,30,29,0.15)" stroke-width="0.5"/>
<line x1="165" y1="328" x2="208" y2="328" stroke="rgba(31,30,29,0.15)" stroke-width="0.5"/>
<line x1="165" y1="343" x2="208" y2="343" stroke="rgba(31,30,29,0.15)" stroke-width="0.5"/>
<line x1="165" y1="358" x2="208" y2="358" stroke="rgba(31,30,29,0.15)" stroke-width="0.5"/>
<circle cx="204" cy="291" r="2" fill="#1d9e75"/>
<circle cx="204" cy="306" r="2" fill="#1d9e75"/>
<circle cx="204" cy="321" r="2" fill="#ef9f27"/>
<circle cx="204" cy="336" r="2" fill="#1d9e75"/>
<circle cx="204" cy="351" r="2" fill="#1d9e75"/>
<text x="183" y="380" text-anchor="middle" fill="#3c3489" font-family="sans-serif" font-size="14" font-weight="500">R1</text>
<!-- RACK 2 – Xarxa -->
<polygon points="240,262 240,392 288,368 288,238" fill="#e1f5ee" stroke="#0f6e56" stroke-width="0.5"/>
<polygon points="240,262 288,238 334,252 286,276" fill="#e1f5ee" stroke="#0f6e56" stroke-width="0.5" opacity="0.7"/>
<polygon points="288,238 334,252 334,382 288,368" fill="#e1f5ee" stroke="#0f6e56" stroke-width="0.5" opacity="0.5"/>
<line x1="243" y1="278" x2="286" y2="278" stroke="rgba(31,30,29,0.15)" stroke-width="0.5"/>
<line x1="243" y1="293" x2="286" y2="293" stroke="rgba(31,30,29,0.15)" stroke-width="0.5"/>
<line x1="243" y1="308" x2="286" y2="308" stroke="rgba(31,30,29,0.15)" stroke-width="0.5"/>
<line x1="243" y1="323" x2="286" y2="323" stroke="rgba(31,30,29,0.15)" stroke-width="0.5"/>
<circle cx="282" cy="271" r="2" fill="#1d9e75"/>
<circle cx="282" cy="286" r="2" fill="#1d9e75"/>
<circle cx="282" cy="301" r="2" fill="#1d9e75"/>
<circle cx="282" cy="316" r="2" fill="#1d9e75"/>
<text x="263" y="360" text-anchor="middle" fill="#085041" font-family="sans-serif" font-size="14" font-weight="500">R2</text>
<!-- RACK 3 – Emmagatzematge -->
<polygon points="318,244 318,374 366,350 366,220" fill="#e6f1fb" stroke="#185fa5" stroke-width="0.5"/>
<polygon points="318,244 366,220 412,234 364,258" fill="#e6f1fb" stroke="#185fa5" stroke-width="0.5" opacity="0.7"/>
<polygon points="366,220 412,234 412,364 366,350" fill="#e6f1fb" stroke="#185fa5" stroke-width="0.5" opacity="0.5"/>
<line x1="321" y1="260" x2="364" y2="260" stroke="rgba(31,30,29,0.15)" stroke-width="0.5"/>
<line x1="321" y1="276" x2="364" y2="276" stroke="rgba(31,30,29,0.15)" stroke-width="0.5"/>
<line x1="321" y1="292" x2="364" y2="292" stroke="rgba(31,30,29,0.15)" stroke-width="0.5"/>
<circle cx="360" cy="253" r="2" fill="#1d9e75"/>
<circle cx="360" cy="269" r="2" fill="#1d9e75"/>
<circle cx="360" cy="285" r="2" fill="#ef9f27"/>
<text x="340" y="340" text-anchor="middle" fill="#0c447c" font-family="sans-serif" font-size="14" font-weight="500">R3</text>
<!-- Flux aire calent cap a CRAC dreta -->
<path d="M340 250 Q390 235 420 270" stroke="#D85A30" stroke-width="2.5" fill="none" opacity="0.4" stroke-linecap="round"/>
<!-- CRAC DRETA -->
<polygon points="428,258 428,338 458,326 458,246" fill="#e1f5ee" stroke="#0f6e56" stroke-width="0.5"/>
<polygon points="428,258 458,246 480,254 450,266" fill="#e1f5ee" stroke="#0f6e56" stroke-width="0.5" opacity="0.7"/>
<polygon points="458,246 480,254 480,334 458,326" fill="#e1f5ee" stroke="#0f6e56" stroke-width="0.5" opacity="0.5"/>
<text x="442" y="318" text-anchor="middle" fill="#0f6e56" font-family="sans-serif" font-size="12">CRAC</text>
<!-- SAI -->
<polygon points="125,358 125,418 160,402 160,342" fill="#faeedb" stroke="#854f0b" stroke-width="0.5"/>
<polygon points="125,358 160,342 185,350 150,366" fill="#faeedb" stroke="#854f0b" stroke-width="0.5" opacity="0.7"/>
<polygon points="160,342 185,350 185,410 160,402" fill="#faeedb" stroke="#854f0b" stroke-width="0.5" opacity="0.5"/>
<text x="143" y="390" text-anchor="middle" fill="#854f0b" font-family="sans-serif" font-size="12">SAI</text>
<!-- CÀMERA CCTV esquerra -->
<circle cx="95" cy="248" r="9" fill="#f7ecec" stroke="#7f2c28" stroke-width="0.5"/>
<circle cx="95" cy="248" r="4" fill="#7f2c28" opacity="0.6"/>
<line x1="95" y1="239" x2="95" y2="229" stroke="rgba(31,30,29,0.3)" stroke-width="1.5"/>
<line x1="91" y1="229" x2="103" y2="229" stroke="rgba(31,30,29,0.3)" stroke-width="1.5"/>
<!-- CÀMERA CCTV dreta -->
<circle cx="490" cy="224" r="9" fill="#f7ecec" stroke="#7f2c28" stroke-width="0.5"/>
<circle cx="490" cy="224" r="4" fill="#7f2c28" opacity="0.6"/>
<line x1="490" y1="215" x2="490" y2="205" stroke="rgba(31,30,29,0.3)" stroke-width="1.5"/>
<line x1="486" y1="205" x2="498" y2="205" stroke="rgba(31,30,29,0.3)" stroke-width="1.5"/>
<!-- Detectors incendis -->
<circle cx="255" cy="178" r="6" fill="#e9f1dc" stroke="#265b19" stroke-width="0.5"/>
<line x1="255" y1="172" x2="255" y2="164" stroke="#265b19" stroke-width="1.5"/>
<circle cx="390" cy="172" r="6" fill="#e9f1dc" stroke="#265b19" stroke-width="0.5"/>
<line x1="390" y1="166" x2="390" y2="158" stroke="#265b19" stroke-width="1.5"/>
<!-- Sensor temperatura/humitat -->
<rect x="194" y="285" width="16" height="22" rx="3" fill="#f6eedf" stroke="#5a4815" stroke-width="0.7"/>
<circle cx="202" cy="303" r="3" fill="#5a4815"/>
<!-- Porta + control accés -->
<polygon points="80,352 80,458 96,452 96,346" fill="#f5f4ed" stroke="rgba(31,30,29,0.3)" stroke-width="1.5"/>
<rect x="93" y="395" width="8" height="12" rx="2" fill="#f7ecec" stroke="#7f2c28" stroke-width="0.5"/>
<!-- Cablejat sostre tècnic -->
<path d="M175 196 Q280 186 380 190 Q430 192 460 200" stroke="#3d3d3a" stroke-width="1.5" fill="none" opacity="0.4" stroke-linecap="round"/>
<path d="M175 203 Q280 193 380 197 Q430 199 460 207" stroke="#378ADD" stroke-width="1" fill="none" opacity="0.25" stroke-linecap="round"/>
<path d="M175 210 Q280 200 380 204 Q430 206 460 214" stroke="#D85A30" stroke-width="1" fill="none" opacity="0.25" stroke-linecap="round"/>
<!-- Etiqueta sòl tècnic -->
<text x="470" y="555" text-anchor="middle" opacity="0.5" fill="#3d3d3a" font-family="sans-serif" font-size="12">Sòl tècnic (40 cm)</text>
<!-- LLEGENDA -->
<rect x="500" y="295" width="165" height="220" rx="8" fill="#f5f4ed" stroke="rgba(31,30,29,0.15)" stroke-width="0.5"/>
<text x="582" y="318" text-anchor="middle" fill="#141413" font-family="sans-serif" font-size="14" font-weight="500">Llegenda</text>
<rect x="514" y="330" width="12" height="12" rx="2" fill="#d6e4f6" stroke="#534ab7" stroke-width="0.5"/>
<text x="530" y="340" fill="#3d3d3a" font-family="sans-serif" font-size="12">Rack 1 — 5 servidors</text>
<rect x="514" y="350" width="12" height="12" rx="2" fill="#e9f1dc" stroke="#0f6e56" stroke-width="0.5"/>
<text x="530" y="360" fill="#3d3d3a" font-family="sans-serif" font-size="12">Rack 2 — Xarxa</text>
<rect x="514" y="370" width="12" height="12" rx="2" fill="#d6e4f6" stroke="#185fa5" stroke-width="0.5"/>
<text x="530" y="380" fill="#3d3d3a" font-family="sans-serif" font-size="12">Rack 3 — Emmagatzematge</text>
<rect x="514" y="390" width="12" height="12" rx="2" fill="#f6eedf" stroke="#854f0b" stroke-width="0.5"/>
<text x="530" y="400" fill="#3d3d3a" font-family="sans-serif" font-size="12">SAI / UPS</text>
<rect x="514" y="410" width="12" height="12" rx="2" fill="#e9f1dc" stroke="#0f6e56" stroke-width="0.5"/>
<text x="530" y="420" fill="#3d3d3a" font-family="sans-serif" font-size="12">Climatització CRAC</text>
<line x1="514" y1="436" x2="526" y2="436" stroke="#378ADD" stroke-width="2.5" stroke-linecap="round"/>
<text x="530" y="440" fill="#3d3d3a" font-family="sans-serif" font-size="12">Aire fred</text>
<line x1="514" y1="456" x2="526" y2="456" stroke="#D85A30" stroke-width="2.5" stroke-linecap="round"/>
<text x="530" y="460" fill="#3d3d3a" font-family="sans-serif" font-size="12">Aire calent</text>
<circle cx="520" cy="476" r="5" fill="#f7ecec" stroke="#7f2c28" stroke-width="0.5"/>
<text x="530" y="480" fill="#3d3d3a" font-family="sans-serif" font-size="12">CCTV + accés RFID</text>
<circle cx="520" cy="496" r="5" fill="#e9f1dc" stroke="#265b19" stroke-width="0.5"/>
<text x="530" y="500" fill="#3d3d3a" font-family="sans-serif" font-size="12">Extinció + sensors</text>
<!-- TÍTOL -->
<text x="280" y="36" text-anchor="middle" fill="#141413" font-family="sans-serif" font-size="14" font-weight="500">CPD InnovateTech — Vista isomètrica (5 servidors)</text>
<text x="280" y="52" text-anchor="middle" fill="#3d3d3a" font-family="sans-serif" font-size="12">Rack 1: LDAP+SFTP, Web, Àudio, Vídeo, BD · Rack 2: Xarxa · Rack 3: NAS</text>
</svg>
